<?xml version="1.0" encoding="UTF-8"?><svg id="b" xmlns="http://www.w3.org/2000/svg" viewBox="0 0 45.888014 47.993469"><defs><style>.d{fill:#e12827;}.e{fill:#e65d42;}.f{fill:#007b38;}.g{fill:#00883e;}.h{fill:#c32120;}</style></defs><g id="c"><path class="d" d="M41.00766,14.473795c-3.537251-4.055751-9.653859-5.876796-14.755495-3.998286-1.081322.39813-5.534936.39813-6.616259,0-5.10177-1.87851-11.218373-.057332-14.755629,3.998286C.67974,19.290239-.629443,25.73185.268471,31.803462c1.141969,7.719479,5.451596,13.008367,13.435693,15.384138,4.458259,1.326565,6.174996.614974,9.239934.614974,3.064804,0,4.781541.711591,9.2398-.614974,7.984102-2.375772,12.293726-7.664667,13.435693-15.384142.897785-6.071608-.41126-12.513219-4.611932-17.329663Z"/><circle class="e" cx="11.580278" cy="20.867762" r="4.514262"/><path class="h" d="M41.00766,14.473795c-3.537251-4.055751-9.653859-5.876796-14.755495-3.998286-1.081322.39813-5.534936.39813-6.616259,0-1.679048-.618295-3.467579-.828376-5.238461-.697392,2.911127.633426,3.012251,4.320373,12.137526,3.643685,8.479772-.628781,14.740765,11.960355,9.916092,22.326599-2.99659,6.438687-13.224948,10.795956-26.651484,9.895789,1.189348.603165,2.48619,1.121668,3.904593,1.543685,4.458259,1.326565,6.174996.614974,9.2398.614974s4.781408.711591,9.2398-.614974c7.983968-2.375772,12.293593-7.664667,13.43556-15.384276.898044-6.07175-.411001-12.513361-4.611673-17.329805Z"/><path class="g" d="M22.778612,8.542984c-.841648-2.123226-2.92785-3.405339-5.200508-3.632539,1.093529,1.053718,1.891118,1.951499,2.258856,3.790064-1.192134-.670054-4.412608-1.15564-6.180039.104842,2.352286.263962,3.656426.789756,5.024403,2.364095,0,0-.957636.886903-1.15564,1.864841-.141203.697525.071531,2.295881.071531,2.295881,1.451714-2.059528,4.918763-1.00886,5.076425-3.162611,0,0,3.572025.682925,4.937875,3.151863.262634-3.256968-1.313298-3.834788-1.313298-3.834788,1.505858-1.085567,4.325019-.315186,5.932933.183934-1.047614-1.548197-3.348672-2.864411-5.448805-2.581078.84377-1.531738,2.344056-2.391303,4.084417-2.562099-2.631378-.905079-6.368493-.866062-8.08815,2.017595h0Z"/><path class="f" d="M24.507293.002165c-2.847692,2.249434-2.539938,7.718283-2.203651,10.333862.205436.102319.460107.125942.744635-.056003.00876-1.584821.127931-4.052167.7165-5.704671.847752-2.380553,2.184673-3.097982,2.184673-3.097982.000004-1.597698-1.442156-1.475206-1.442156-1.475206Z"/></g></svg>